<svg width="82" height="54" viewBox="0 0 82 54" fill="none" xmlns="http://www.w3.org/2000/svg">
<mask id="path-1-outside-1_21_2" maskUnits="userSpaceOnUse" x="-1" y="-1" width="84" height="56" fill="black">
<rect fill="white" x="-1" y="-1" width="84" height="56"/>
<path d="M0.551136 53V0.636362H35.8352V9.7642H11.6222V22.2415H34.0199V31.3693H11.6222V43.8722H35.9375V53H0.551136ZM70.5008 0.636362H81.5718V34.642C81.5718 38.4602 80.6599 41.8011 78.8361 44.6648C77.0292 47.5284 74.498 49.7614 71.2423 51.3636C67.9866 52.9489 64.194 53.7415 59.8645 53.7415C55.5179 53.7415 51.7167 52.9489 48.4611 51.3636C45.2054 49.7614 42.6741 47.5284 40.8673 44.6648C39.0605 41.8011 38.1571 38.4602 38.1571 34.642V0.636362H49.2281V33.696C49.2281 35.6903 49.6628 37.4631 50.5321 39.0142C51.4184 40.5653 52.6628 41.7841 54.265 42.6705C55.8673 43.5568 57.7338 44 59.8645 44C62.0122 44 63.8787 43.5568 65.4639 42.6705C67.0662 41.7841 68.302 40.5653 69.1713 39.0142C70.0576 37.4631 70.5008 35.6903 70.5008 33.696V0.636362Z"/>
</mask>
<path d="M0.551136 53V0.636362H35.8352V9.7642H11.6222V22.2415H34.0199V31.3693H11.6222V43.8722H35.9375V53H0.551136ZM70.5008 0.636362H81.5718V34.642C81.5718 38.4602 80.6599 41.8011 78.8361 44.6648C77.0292 47.5284 74.498 49.7614 71.2423 51.3636C67.9866 52.9489 64.194 53.7415 59.8645 53.7415C55.5179 53.7415 51.7167 52.9489 48.4611 51.3636C45.2054 49.7614 42.6741 47.5284 40.8673 44.6648C39.0605 41.8011 38.1571 38.4602 38.1571 34.642V0.636362H49.2281V33.696C49.2281 35.6903 49.6628 37.4631 50.5321 39.0142C51.4184 40.5653 52.6628 41.7841 54.265 42.6705C55.8673 43.5568 57.7338 44 59.8645 44C62.0122 44 63.8787 43.5568 65.4639 42.6705C67.0662 41.7841 68.302 40.5653 69.1713 39.0142C70.0576 37.4631 70.5008 35.6903 70.5008 33.696V0.636362Z" fill="black"/>
<path d="M0.551136 53H-0.448864V54H0.551136V53ZM0.551136 0.636362V-0.363638H-0.448864V0.636362H0.551136ZM35.8352 0.636362H36.8352V-0.363638H35.8352V0.636362ZM35.8352 9.7642V10.7642H36.8352V9.7642H35.8352ZM11.6222 9.7642V8.7642H10.6222V9.7642H11.6222ZM11.6222 22.2415H10.6222V23.2415H11.6222V22.2415ZM34.0199 22.2415H35.0199V21.2415H34.0199V22.2415ZM34.0199 31.3693V32.3693H35.0199V31.3693H34.0199ZM11.6222 31.3693V30.3693H10.6222V31.3693H11.6222ZM11.6222 43.8722H10.6222V44.8722H11.6222V43.8722ZM35.9375 43.8722H36.9375V42.8722H35.9375V43.8722ZM35.9375 53V54H36.9375V53H35.9375ZM1.55114 53V0.636362H-0.448864V53H1.55114ZM0.551136 1.63636H35.8352V-0.363638H0.551136V1.63636ZM34.8352 0.636362V9.7642H36.8352V0.636362H34.8352ZM35.8352 8.7642H11.6222V10.7642H35.8352V8.7642ZM10.6222 9.7642V22.2415H12.6222V9.7642H10.6222ZM11.6222 23.2415H34.0199V21.2415H11.6222V23.2415ZM33.0199 22.2415V31.3693H35.0199V22.2415H33.0199ZM34.0199 30.3693H11.6222V32.3693H34.0199V30.3693ZM10.6222 31.3693V43.8722H12.6222V31.3693H10.6222ZM11.6222 44.8722H35.9375V42.8722H11.6222V44.8722ZM34.9375 43.8722V53H36.9375V43.8722H34.9375ZM35.9375 52H0.551136V54H35.9375V52ZM70.5008 0.636362V-0.363638H69.5008V0.636362H70.5008ZM81.5718 0.636362H82.5718V-0.363638H81.5718V0.636362ZM78.8361 44.6648L77.9926 44.1276L77.9903 44.1312L78.8361 44.6648ZM71.2423 51.3636L71.6801 52.2627L71.6839 52.2609L71.2423 51.3636ZM48.4611 51.3636L48.0195 52.2609L48.0233 52.2627L48.4611 51.3636ZM40.8673 44.6648L40.0216 45.1984L40.0216 45.1984L40.8673 44.6648ZM38.1571 0.636362V-0.363638H37.1571V0.636362H38.1571ZM49.2281 0.636362H50.2281V-0.363638H49.2281V0.636362ZM50.5321 39.0142L49.6597 39.5031L49.6638 39.5103L50.5321 39.0142ZM54.265 42.6705L53.781 43.5455L53.781 43.5455L54.265 42.6705ZM65.4639 42.6705L64.9798 41.7954L64.9759 41.7976L65.4639 42.6705ZM69.1713 39.0142L68.303 38.518L68.2989 38.5253L69.1713 39.0142ZM70.5008 1.63636H81.5718V-0.363638H70.5008V1.63636ZM80.5718 0.636362V34.642H82.5718V0.636362H80.5718ZM80.5718 34.642C80.5718 38.2943 79.7018 41.4439 77.9926 44.1276L79.6795 45.202C81.618 42.1584 82.5718 38.6261 82.5718 34.642H80.5718ZM77.9903 44.1312C76.2892 46.8273 73.9031 48.9396 70.8007 50.4664L71.6839 52.2609C75.0929 50.5831 77.7693 48.2295 79.6818 45.1984L77.9903 44.1312ZM70.8045 50.4646C67.7094 51.9716 64.0717 52.7415 59.8645 52.7415V54.7415C64.3163 54.7415 68.2639 53.9261 71.6801 52.2627L70.8045 50.4646ZM59.8645 52.7415C55.6395 52.7415 51.9935 51.9714 48.8988 50.4646L48.0233 52.2627C51.44 53.9264 55.3962 54.7415 59.8645 54.7415V52.7415ZM48.9026 50.4664C45.8003 48.9396 43.4142 46.8273 41.713 44.1312L40.0216 45.1984C41.934 48.2295 44.6104 50.5831 48.0195 52.2609L48.9026 50.4664ZM41.713 44.1312C40.0195 41.447 39.1571 38.2961 39.1571 34.642H37.1571C37.1571 38.6243 38.1015 42.1553 40.0216 45.1984L41.713 44.1312ZM39.1571 34.642V0.636362H37.1571V34.642H39.1571ZM38.1571 1.63636H49.2281V-0.363638H38.1571V1.63636ZM48.2281 0.636362V33.696H50.2281V0.636362H48.2281ZM48.2281 33.696C48.2281 35.8403 48.6969 37.7851 49.6597 39.5031L51.4044 38.5253C50.6286 37.141 50.2281 35.5403 50.2281 33.696H48.2281ZM49.6638 39.5103C50.6435 41.2247 52.0225 42.5727 53.781 43.5455L54.7491 41.7954C53.303 40.9954 52.1934 39.906 51.4003 38.5181L49.6638 39.5103ZM53.781 43.5455C55.554 44.5263 57.5923 45 59.8645 45V43C57.8752 43 56.1806 42.5873 54.7491 41.7954L53.781 43.5455ZM59.8645 45C62.1518 45 64.1924 44.5271 65.9519 43.5433L64.9759 41.7976C63.5649 42.5866 61.8726 43 59.8645 43V45ZM65.948 43.5455C67.708 42.5719 69.0805 41.2216 70.0436 39.5031L68.2989 38.5253C67.5234 39.9091 66.4244 40.9963 64.9798 41.7954L65.948 43.5455ZM70.0395 39.5103C71.0219 37.7911 71.5008 35.8437 71.5008 33.696H69.5008C69.5008 35.537 69.0933 37.135 68.303 38.5181L70.0395 39.5103ZM71.5008 33.696V0.636362H69.5008V33.696H71.5008Z" fill="white" mask="url(#path-1-outside-1_21_2)"/>
</svg>
